<?xml version="1.0"?>
<svg width="628" height="290" xmlns="http://www.w3.org/2000/svg" xmlns:svg="http://www.w3.org/2000/svg">
 <!-- Created with SVG-edit - https://github.com/SVG-Edit/svgedit-->
 <defs>
  <linearGradient id="svg_3">
   <stop offset="1" stop-color="#515a6e"/>
   <stop offset="1" stop-color="#aea591"/>
  </linearGradient>
 </defs>
 <g class="layer">
  <title>Layer 1</title>
  <circle cx="82.510712" cy="-411.723389" fill="#000000" fill-opacity="0" id="svg_1" r="0" stroke="#000000" stroke-width="0"/>
  <text fill="#515a6e" font-family="Monospace" font-size="250" id="svg_134" stroke="#515a6e" stroke-dasharray="null" stroke-linecap="null" stroke-linejoin="null" stroke-width="0" text-anchor="middle" transform="matrix(1.2037 0 0 1.2037 -7.58456 -23.7861)" x="71.79212" xml:space="preserve" y="257.592022">4</text>
  <line fill="none" id="svg_5" stroke="#515a6e" stroke-dasharray="null" stroke-linecap="null" stroke-linejoin="null" stroke-width="5" x1="325.541978" x2="325.541978" y1="81.037303" y2="282.001607"/>
  <path d="m390.16155,4.14979c-20.47554,1.92591 -43.48517,5.98048 -88.4908,15.61006c-31.72694,6.69002 -57.37204,8.00776 -74.90801,3.6491c-10.84595,-2.73683 -22.09736,-8.10912 -29.39557,-14.0896c-2.73683,-2.12864 -5.27093,-3.54774 -5.87912,-3.24365c-0.70954,0.40546 -1.01364,47.94519 -1.01364,139.47691l0,138.76735l2.5341,0l2.53411,0l0,-104.91177l0,-104.91177l120.11637,0l120.11637,0l0,33.95695l0,33.95695l2.5341,0l2.5341,0l0,-44.09335l0,-44.09335l-2.5341,0c-2.43273,0 -2.5341,0.20272 -2.5341,7.6023l0,7.6023l-120.11637,0l-120.11637,0l0,-27.46965l0,-27.36829l2.73682,2.12865c3.14229,2.43273 13.68415,7.50094 21.18509,10.1364c18.14416,6.38593 54.02702,4.96684 90.11262,-3.54774c18.04279,-4.25729 44.39744,-9.22413 64.36616,-12.26505c10.44049,-1.62182 39.53197,-2.23001 52.20247,-1.21637c4.35865,0.40546 4.35865,-3.24364 0,-4.46001c-3.54774,-0.91228 -29.39557,-1.82455 -35.98423,-1.21637z" fill="#515a6e" id="svg_124" stroke="#515a6e"/>
  <path d="m304.12883,83.95152l-12.79721,0.63352l-23.31373,7.85571l-20.52621,12.92392l-13.17732,14.44437l-9.62959,12.92392l-9.37617,19.51257l-4.56138,20.0194l0.50682,17.23188l3.04092,14.95119l3.29433,11.40346l3.80115,8.61594l10.89664,19.00575l12.6705,11.65687l22.5535,16.21824l9.12276,2.78751l16.72506,5.57502l9.88299,-0.25341l-4.81479,-10.1364l-14.69778,-15.71142l-12.6705,-18.49894l-9.883,-21.28645l-5.32161,-27.8751l0.50682,-19.00576l6.08184,-21.79326l9.883,-21.79327l14.19096,-18.24552l17.612,-21.15974z" fill="url(#svg_3)" fill-opacity="0.5" id="svg_132" stroke="#515a6e" stroke-dasharray="null" stroke-linecap="null" stroke-linejoin="null" stroke-width="null"/>
  <path d="m293.61231,81.84531c-42.47153,7.19685 -76.22575,41.1538 -83.1185,83.82806c-1.92592,11.85959 -1.92592,20.17144 0,32.03103c6.99412,43.07971 39.93742,76.22575 83.21986,83.82805c10.33914,1.82455 17.23189,1.92592 18.14417,0.40546c0.40545,-0.60819 -4.56139,-6.28457 -10.94732,-12.67051c-28.99011,-28.68602 -42.2688,-56.25703 -42.2688,-87.57852c0,-31.01739 12.77187,-57.87886 41.45789,-86.97033c6.1832,-6.28457 11.2514,-11.75823 11.2514,-12.26505c0,-2.33137 -6.08184,-2.5341 -17.7387,-0.60818l0,-0.00001zm-1.21637,13.38006c-26.15192,27.26692 -38.72106,55.44612 -38.72106,86.46351s12.56914,59.1966 38.6197,86.36216c8.51458,8.92003 9.12276,9.73094 6.38593,9.22412c-35.17331,-6.1832 -60.10886,-24.12464 -74.50256,-53.52021c-7.19684,-14.59642 -9.52822,-25.03691 -9.52822,-42.06607s2.33138,-27.57101 9.52822,-42.06607c11.04868,-22.50281 29.90239,-39.53197 53.01339,-48.14791c4.56138,-1.72319 19.46189,-5.47366 24.12464,-5.98048c0.30409,-0.10136 -3.75047,4.35865 -8.92004,9.73095z" fill="#515a6e" id="svg_123" stroke="#515a6e"/>
  <g id="svg_109">
   <path d="m209.78426,58.02477l0,-17.43461l11.96096,0l0,2.93956l-8.41322,0l0,4.15592l7.29821,0l0,2.93956l-7.29821,0l0,7.39957l-3.54774,0z" fill="#515a6e" id="svg_110" stroke="#515a6e"/>
   <path d="m224.58341,58.02477l0,-17.43461l7.39957,0c1.82455,0 3.24365,0.20273 4.05456,0.50682s1.52046,0.91228 2.02728,1.62182s0.81092,1.72319 0.81092,2.73683c0,1.31774 -0.40546,2.43274 -1.11501,3.24365s-1.92591,1.4191 -3.44638,1.62183c0.81092,0.40545 1.4191,0.91227 1.92592,1.41909s1.115,1.52046 2.02728,2.8382l2.12865,3.44637l-4.15593,0l-2.5341,-3.75047c-0.91228,-1.31773 -1.52046,-2.23001 -1.82455,-2.5341s-0.70955,-0.60818 -1.01364,-0.70955s-0.91228,-0.20272 -1.72319,-0.20272l-0.70955,0l0,7.19684l-3.85183,0zm3.54774,-10.03504l2.63546,0c1.72319,0 2.73683,-0.10136 3.14229,-0.20273s0.70955,-0.40545 1.01364,-0.70954s0.40545,-0.81092 0.40545,-1.31774c0,-0.60818 -0.20272,-1.01364 -0.50682,-1.41909s-0.70954,-0.60819 -1.31773,-0.70955c-0.30409,0 -1.115,-0.10136 -2.5341,-0.10136l-2.73683,0l0,4.46001l-0.10136,0z" fill="#515a6e" id="svg_111" stroke="#515a6e"/>
   <path d="m242.11938,58.02477l0,-17.43461l12.87324,0l0,2.93956l-9.42686,0l0,3.85183l8.71731,0l0,2.93956l-8.71731,0l0,4.76411l9.73095,0l0,2.93955l-13.17732,0l-0.00001,0z" fill="#515a6e" id="svg_112" stroke="#515a6e"/>
   <path d="m258.33763,58.02477l0,-17.43461l12.87323,0l0,2.93956l-9.42685,0l0,3.85183l8.7173,0l0,2.93956l-8.7173,0l0,4.76411l9.73094,0l0,2.93955l-13.17732,0z" fill="#515a6e" id="svg_113" stroke="#515a6e"/>
   <path d="m292.49731,51.63884l3.44637,1.115c-0.50682,1.92592 -1.41909,3.34501 -2.63546,4.25729s-2.73683,1.4191 -4.66275,1.4191c-2.33137,0 -4.25729,-0.81092 -5.67638,-2.33138s-2.23001,-3.75047 -2.23001,-6.48729c0,-2.93956 0.70955,-5.16957 2.23001,-6.79139s3.44637,-2.43274 5.87911,-2.43274c2.12865,0 3.85184,0.60818 5.16957,1.92591c0.81091,0.70955 1.41909,1.82456 1.82455,3.24365l-3.44638,0.81092c-0.20273,-0.91228 -0.60818,-1.62183 -1.31773,-2.12865s-1.4191,-0.81091 -2.33137,-0.81091c-1.31773,0 -2.33138,0.50682 -3.14229,1.41909s-1.21637,2.43274 -1.21637,4.46002c0,2.23001 0.40546,3.75047 1.21637,4.66275s1.82455,1.41909 3.04092,1.41909c0.91228,0 1.72319,-0.30409 2.43274,-0.91227s1.115,-1.62183 1.4191,-2.8382l0,0.00001z" fill="#515a6e" id="svg_114" stroke="#515a6e"/>
   <path d="m314.59466,58.02477l-3.85183,0l-1.52046,-3.95319l-6.99412,0l-1.41909,3.95319l-3.64911,0l6.79139,-17.43461l3.75047,0l6.89275,17.43461zm-6.38593,-6.89275l-2.43274,-6.4873l-2.33137,6.4873l4.76411,0z" fill="#515a6e" id="svg_115" stroke="#515a6e"/>
   <path d="m315.6083,52.34839l3.44638,-0.3041c0.20273,1.11501 0.60818,2.02728 1.21637,2.53411s1.52046,0.81091 2.5341,0.81091c1.115,0 2.02728,-0.20273 2.5341,-0.70955s0.81091,-1.01364 0.81091,-1.72319c0,-0.40545 -0.10136,-0.81091 -0.40545,-1.01364s-0.70955,-0.50682 -1.21637,-0.70955c-0.40546,-0.10136 -1.31773,-0.40545 -2.8382,-0.81091c-1.92591,-0.50682 -3.24364,-1.01364 -3.95319,-1.72319c-1.11501,-0.91227 -1.62183,-2.12864 -1.62183,-3.54774c0,-0.91227 0.20273,-1.72319 0.70955,-2.5341s1.21637,-1.31773 2.12865,-1.72319s2.12864,-0.60818 3.44637,-0.60818c2.23001,0 3.85184,0.50682 4.96684,1.41909s1.72319,2.23001 1.72319,3.85184l-3.54774,0.20273c-0.10137,-0.91228 -0.50682,-1.52046 -1.01364,-1.92592s-1.21637,-0.60818 -2.23001,-0.60818c-1.01364,0 -1.82455,0.20272 -2.43274,0.60818c-0.40545,0.30409 -0.60818,0.60818 -0.60818,1.115c0,0.40546 0.20273,0.81092 0.50682,1.01364c0.40545,0.40546 1.52046,0.81092 3.24365,1.11501s2.93955,0.81091 3.75047,1.21637s1.41909,1.01364 1.92591,1.72318s0.70955,1.72319 0.70955,2.73683c0,1.01364 -0.30409,1.92592 -0.81091,2.8382s-1.31773,1.52046 -2.33137,1.92591s-2.23001,0.60819 -3.75047,0.60819c-2.23001,0 -3.85184,-0.50682 -5.0682,-1.52046s-1.62183,-2.33138 -1.82456,-4.25729z" fill="#515a6e" id="svg_116" stroke="#515a6e"/>
   <path d="m332.73882,58.02477l0,-17.43461l3.54774,0l0,6.89275l6.89276,0l0,-6.89275l3.54774,0l0,17.43461l-3.54774,0l0,-7.6023l-6.89276,0l0,7.6023l-3.54774,0z" fill="#515a6e" id="svg_117" stroke="#515a6e"/>
   <path d="m357.06619,40.59016l6.38593,0c1.4191,0 2.53411,0.10136 3.34502,0.30409c1.01364,0.30409 1.92591,0.81091 2.63546,1.62183s1.31773,1.72318 1.62183,2.83819s0.60818,2.5341 0.60818,4.15592c0,1.4191 -0.20273,2.63547 -0.50682,3.75047c-0.40546,1.31773 -1.01364,2.33138 -1.82455,3.04092c-0.60819,0.60819 -1.4191,1.01364 -2.43274,1.4191c-0.81091,0.20273 -1.82455,0.40546 -3.14228,0.40546l-6.58867,0l0,-17.53598l-0.10136,0zm3.54774,2.93956l0,11.5555l2.63547,0c1.01364,0 1.72318,-0.10137 2.12864,-0.20273c0.60818,-0.10137 1.01364,-0.40546 1.4191,-0.70955s0.70955,-0.91228 0.91227,-1.72319s0.40546,-1.82455 0.40546,-3.14228s-0.10136,-2.33138 -0.40546,-3.14229s-0.60818,-1.31773 -1.01364,-1.72319s-1.01364,-0.70954 -1.62182,-0.81091c-0.50682,-0.10136 -1.4191,-0.20273 -2.83819,-0.20273l-1.62183,0l0,0.10137z" fill="#515a6e" id="svg_118" stroke="#515a6e"/>
   <path d="m374.60217,58.02477l0,-17.43461l12.87323,0l0,2.93956l-9.42686,0l0,3.85183l8.71731,0l0,2.93956l-8.71731,0l0,4.76411l9.73095,0l0,2.93955l-13.17732,0z" fill="#515a6e" id="svg_119" stroke="#515a6e"/>
   <path d="m390.0095,52.34839l3.44638,-0.3041c0.20272,1.11501 0.60818,2.02728 1.21636,2.53411s1.52046,0.81091 2.5341,0.81091c1.11501,0 2.02729,-0.20273 2.53411,-0.70955s0.81091,-1.01364 0.81091,-1.72319c0,-0.40545 -0.10137,-0.81091 -0.40546,-1.01364s-0.70955,-0.50682 -1.21637,-0.70955c-0.40545,-0.10136 -1.31773,-0.40545 -2.83819,-0.81091c-1.92591,-0.50682 -3.24365,-1.01364 -3.9532,-1.72319c-1.115,-0.91227 -1.62182,-2.12864 -1.62182,-3.54774c0,-0.91227 0.20273,-1.72319 0.70955,-2.5341s1.21637,-1.31773 2.12864,-1.72319s2.12865,-0.60818 3.44638,-0.60818c2.23001,0 3.85183,0.50682 4.96684,1.41909s1.72318,2.23001 1.72318,3.85184l-3.54774,0.20273c-0.10136,-0.91228 -0.50682,-1.52046 -1.01364,-1.92592s-1.21636,-0.60818 -2.23001,-0.60818c-1.01364,0 -1.82455,0.20272 -2.43273,0.60818c-0.40546,0.30409 -0.60819,0.60818 -0.60819,1.115c0,0.40546 0.20273,0.81092 0.50682,1.01364c0.40546,0.40546 1.52046,0.81092 3.24365,1.11501s2.93956,0.81091 3.75047,1.21637s1.4191,1.01364 1.92592,1.72318s0.70955,1.72319 0.70955,2.73683c0,1.01364 -0.3041,1.92592 -0.81092,2.8382s-1.31773,1.52046 -2.33137,1.92591s-2.23001,0.60819 -3.75047,0.60819c-2.23001,0 -3.85183,-0.50682 -5.0682,-1.52046s-1.62182,-2.33138 -1.82455,-4.25729z" fill="#515a6e" id="svg_120" stroke="#515a6e"/>
   <path d="m407.14002,58.02477l0,-17.43461l3.54774,0l0,7.70367l7.09548,-7.70367l4.76411,0l-6.58866,6.79139l6.89275,10.64322l-4.56138,0l-4.76411,-8.21048l-2.83819,2.93955l0,5.27093l-3.54774,0z" fill="#515a6e" id="svg_121" stroke="#515a6e"/>
  </g>
  <path d="m330.16671,279.90085l12.79721,-0.63352l23.31373,-7.85572l20.52621,-12.92391l13.17732,-14.44437l9.62959,-12.92392l9.37617,-19.51257l4.56138,-20.0194l-0.50682,-17.23188l-3.04092,-14.95119l-3.29433,-11.40346l-3.80115,-8.61594l-10.89664,-19.00575l-12.6705,-11.65687l-22.5535,-16.21824l-9.12276,-2.78751l-16.72506,-5.57502l-9.883,0.25341l4.8148,10.1364l14.69778,15.71142l12.6705,18.49894l9.883,21.28644l5.32161,27.87511l-0.50682,19.00576l-6.08184,21.79326l-9.883,21.79327l-14.19096,18.24552l-17.612,21.15974z" fill="url(#svg_3)" fill-opacity="0.5" id="svg_133" stroke="#515a6e" stroke-dasharray="null" stroke-linecap="null" stroke-linejoin="null" stroke-width="null"/>
  <path d="m341.30299,282.07021c42.47152,-7.19684 76.22575,-41.15379 83.1185,-83.82805c1.92592,-11.85959 1.92592,-20.17144 0,-32.03103c-6.99412,-43.07971 -39.93743,-76.22575 -83.21987,-83.82805c-10.33913,-1.82455 -17.23188,-1.92592 -18.14416,-0.40546c-0.40545,0.60819 4.56138,6.28457 10.94732,12.67051c28.99011,28.68602 42.2688,56.25703 42.2688,87.57852c0,31.01739 -12.77187,57.87886 -41.45789,86.97033c-6.18321,6.28457 -11.25141,11.75823 -11.25141,12.26505c0,2.33137 6.08184,2.5341 17.73871,0.60818zm1.21636,-13.38005c26.15192,-27.26692 38.72106,-55.44612 38.72106,-86.46351s-12.56914,-59.1966 -38.61969,-86.36216c-8.51458,-8.92003 -9.12276,-9.73094 -6.38594,-9.22412c35.17332,6.1832 60.10887,24.12464 74.50257,53.5202c7.19684,14.59642 9.52821,25.03692 9.52821,42.06608s-2.33137,27.57101 -9.52821,42.06607c-11.04868,22.50281 -29.90239,39.53197 -53.01339,48.14791c-4.56138,1.72319 -19.46189,5.47366 -24.12464,5.98048c-0.30409,0.10136 3.75047,-4.35866 8.92003,-9.73095z" fill="#515a6e" id="svg_125" stroke="#515a6e"/>
  <line fill="none" id="svg_127" stroke="#515a6e" stroke-dasharray="null" stroke-linecap="null" stroke-linejoin="null" stroke-width="5" x1="437.436162" x2="437.436162" y1="53.788894" y2="142.999479"/>
  <text fill="#515a6e" font-family="Monospace" font-size="250" id="svg_136" stroke="#515a6e" stroke-dasharray="null" stroke-linecap="null" stroke-linejoin="null" stroke-width="0" text-anchor="middle" transform="matrix(1.2037 0 0 1.2037 -7.58456 -23.7861)" x="461.307745" xml:space="preserve" y="257.592022">4</text>
 </g>
</svg>