<?xml version="1.0"?>
<svg width="405" height="455" xmlns="http://www.w3.org/2000/svg" xmlns:svg="http://www.w3.org/2000/svg">
 <!-- Created with SVG-edit - https://github.com/SVG-Edit/svgedit-->
 <defs>
  <linearGradient id="svg_2">
   <stop offset="1" stop-color="#2d8cf0"/>
   <stop offset="1" stop-color="#d2730f"/>
  </linearGradient>
 </defs>
 <g class="layer">
  <title>Layer 1</title>
  <circle cx="82.510712" cy="-411.723389" fill="#000000" fill-opacity="0" id="svg_1" r="0" stroke="#000000" stroke-width="0"/>
  <g id="svg_24" transform="translate(0 280) scale(0.1 -0.1)">
   <path d="m-6615,14408.71289c-202,-19 -429,-59 -873,-154c-313,-66 -566,-79 -739,-36c-107,27 -218,80 -290,139c-27,21 -52,35 -58,32c-7,-4 -10,-473 -10,-1376l0,-1369l25,0l25,0l0,1035l0,1035l1185,0l1185,0l0,-335l0,-335l25,0l25,0l0,435l0,435l-25,0c-24,0 -25,-2 -25,-75l0,-75l-1185,0l-1185,0l0,271l0,270l27,-21c31,-24 135,-74 209,-100c179,-63 533,-49 889,35c178,42 438,91 635,121c103,16 390,22 515,12c43,-4 43,32 0,44c-35,9 -290,18 -355,12z" id="svg_25"/>
   <path d="m-7570,13639.71289c-419,-71 -752,-406 -820,-827c-19,-117 -19,-199 0,-316c69,-425 394,-752 821,-827c102,-18 170,-19 179,-4c4,6 -45,62 -108,125c-286,283 -417,555 -417,864c0,306 126,571 409,858c61,62 111,116 111,121c0,23 -60,25 -175,6zm-12,-132c-258,-269 -382,-547 -382,-853s124,-584 381,-852c84,-88 90,-96 63,-91c-347,61 -593,238 -735,528c-71,144 -94,247 -94,415s23,272 94,415c109,222 295,390 523,475c45,17 192,54 238,59c3,1 -37,-43 -88,-96z" id="svg_26"/>
   <path d="m-7285,12653.71289l0,-1002l83,7c371,29 699,262 843,599c59,137 78,232 79,392c0,162 -17,252 -72,385c-112,268 -333,474 -610,569c-68,23 -225,51 -285,51l-38,0l0,-1001zm223,773c438,-486 438,-1058 0,-1544c-43,-48 -99,-106 -125,-128l-48,-42l0,942l0,942l48,-42c26,-22 82,-80 125,-128zm17,148c184,-44 387,-174 508,-324c74,-93 152,-247 184,-366c18,-69 22,-112 22,-230c1,-179 -19,-264 -99,-425c-96,-194 -235,-331 -430,-425c-89,-44 -231,-90 -274,-90c-9,0 22,40 72,92c254,268 376,545 376,848s-122,580 -376,848c-49,50 -83,92 -78,92c6,0 48,-9 95,-20z" id="svg_27"/>
  </g>
  <g id="svg_11">
   <path d="m-839.7,-1107.47131l0,-17.2l11.8,0l0,2.9l-8.3,0l0,4.1l7.2,0l0,2.9l-7.2,0l0,7.3l-3.5,0z" id="svg_12"/>
   <path d="m-825.1,-1107.47131l0,-17.2l7.3,0c1.8,0 3.2,0.2 4,0.5s1.5,0.9 2,1.6s0.8,1.7 0.8,2.7c0,1.3 -0.4,2.4 -1.1,3.2s-1.9,1.4 -3.4,1.6c0.8,0.4 1.4,0.9 1.9,1.4s1.1,1.5 2,2.8l2.1,3.4l-4.1,0l-2.5,-3.7c-0.9,-1.3 -1.5,-2.2 -1.8,-2.5s-0.7,-0.6 -1,-0.7s-0.9,-0.2 -1.7,-0.2l-0.7,0l0,7.1l-3.8,0zm3.5,-9.9l2.6,0c1.7,0 2.7,-0.1 3.1,-0.2s0.7,-0.4 1,-0.7s0.4,-0.8 0.4,-1.3c0,-0.6 -0.2,-1 -0.5,-1.4s-0.7,-0.6 -1.3,-0.7c-0.3,0 -1.1,-0.1 -2.5,-0.1l-2.7,0l0,4.4l-0.1,0z" id="svg_13"/>
   <path d="m-807.8,-1107.47131l0,-17.2l12.7,0l0,2.9l-9.3,0l0,3.8l8.6,0l0,2.9l-8.6,0l0,4.7l9.6,0l0,2.9l-13,0z" id="svg_14"/>
   <path d="m-791.8,-1107.47131l0,-17.2l12.7,0l0,2.9l-9.3,0l0,3.8l8.6,0l0,2.9l-8.6,0l0,4.7l9.6,0l0,2.9l-13,0z" id="svg_15"/>
   <path d="m-758.1,-1113.77131l3.4,1.1c-0.5,1.9 -1.4,3.3 -2.6,4.2s-2.7,1.4 -4.6,1.4c-2.3,0 -4.2,-0.8 -5.6,-2.3s-2.2,-3.7 -2.2,-6.4c0,-2.9 0.7,-5.1 2.2,-6.7s3.4,-2.4 5.8,-2.4c2.1,0 3.8,0.6 5.1,1.9c0.8,0.7 1.4,1.8 1.8,3.2l-3.4,0.8c-0.2,-0.9 -0.6,-1.6 -1.3,-2.1s-1.4,-0.8 -2.3,-0.8c-1.3,0 -2.3,0.5 -3.1,1.4s-1.2,2.4 -1.2,4.4c0,2.2 0.4,3.7 1.2,4.6s1.8,1.4 3,1.4c0.9,0 1.7,-0.3 2.4,-0.9s1.1,-1.6 1.4,-2.8z" id="svg_16"/>
   <path d="m-736.3,-1107.47131l-3.8,0l-1.5,-3.9l-6.9,0l-1.4,3.9l-3.6,0l6.7,-17.2l3.7,0l6.8,17.2zm-6.3,-6.8l-2.4,-6.4l-2.3,6.4l4.7,0z" id="svg_17"/>
   <path d="m-735.3,-1113.07131l3.4,-0.3c0.2,1.1 0.6,2 1.2,2.5s1.5,0.8 2.5,0.8c1.1,0 2,-0.2 2.5,-0.7s0.8,-1 0.8,-1.7c0,-0.4 -0.1,-0.8 -0.4,-1s-0.7,-0.5 -1.2,-0.7c-0.4,-0.1 -1.3,-0.4 -2.8,-0.8c-1.9,-0.5 -3.2,-1 -3.9,-1.7c-1.1,-0.9 -1.6,-2.1 -1.6,-3.5c0,-0.9 0.2,-1.7 0.7,-2.5s1.2,-1.3 2.1,-1.7s2.1,-0.6 3.4,-0.6c2.2,0 3.8,0.5 4.9,1.4s1.7,2.2 1.7,3.8l-3.5,0.2c-0.1,-0.9 -0.5,-1.5 -1,-1.9s-1.2,-0.6 -2.2,-0.6c-1,0 -1.8,0.2 -2.4,0.6c-0.4,0.3 -0.6,0.6 -0.6,1.1c0,0.4 0.2,0.8 0.5,1c0.4,0.4 1.5,0.8 3.2,1.1s2.9,0.8 3.7,1.2s1.4,1 1.9,1.7s0.7,1.7 0.7,2.7c0,1 -0.3,1.9 -0.8,2.8s-1.3,1.5 -2.3,1.9s-2.2,0.6 -3.7,0.6c-2.2,0 -3.8,-0.5 -5,-1.5s-1.6,-2.3 -1.8,-4.2z" id="svg_18"/>
   <path d="m-718.4,-1107.47131l0,-17.2l3.5,0l0,6.8l6.8,0l0,-6.8l3.5,0l0,17.2l-3.5,0l0,-7.5l-6.8,0l0,7.5l-3.5,0z" id="svg_19"/>
   <path d="m-694.4,-1124.67131l6.3,0c1.4,0 2.5,0.1 3.3,0.3c1,0.3 1.9,0.8 2.6,1.6s1.3,1.7 1.6,2.8s0.6,2.5 0.6,4.1c0,1.4 -0.2,2.6 -0.5,3.7c-0.4,1.3 -1,2.3 -1.8,3c-0.6,0.6 -1.4,1 -2.4,1.4c-0.8,0.2 -1.8,0.4 -3.1,0.4l-6.5,0l0,-17.3l-0.1,0zm3.5,2.9l0,11.4l2.6,0c1,0 1.7,-0.1 2.1,-0.2c0.6,-0.1 1,-0.4 1.4,-0.7s0.7,-0.9 0.9,-1.7s0.4,-1.8 0.4,-3.1s-0.1,-2.3 -0.4,-3.1s-0.6,-1.3 -1,-1.7s-1,-0.7 -1.6,-0.8c-0.5,-0.1 -1.4,-0.2 -2.8,-0.2l-1.6,0l0,0.1z" id="svg_20"/>
   <path d="m-677.1,-1107.47131l0,-17.2l12.7,0l0,2.9l-9.3,0l0,3.8l8.6,0l0,2.9l-8.6,0l0,4.7l9.6,0l0,2.9l-13,0z" id="svg_21"/>
   <path d="m-661.9,-1113.07131l3.4,-0.3c0.2,1.1 0.6,2 1.2,2.5s1.5,0.8 2.5,0.8c1.1,0 2,-0.2 2.5,-0.7s0.8,-1 0.8,-1.7c0,-0.4 -0.1,-0.8 -0.4,-1s-0.7,-0.5 -1.2,-0.7c-0.4,-0.1 -1.3,-0.4 -2.8,-0.8c-1.9,-0.5 -3.2,-1 -3.9,-1.7c-1.1,-0.9 -1.6,-2.1 -1.6,-3.5c0,-0.9 0.2,-1.7 0.7,-2.5s1.2,-1.3 2.1,-1.7s2.1,-0.6 3.4,-0.6c2.2,0 3.8,0.5 4.9,1.4s1.7,2.2 1.7,3.8l-3.5,0.2c-0.1,-0.9 -0.5,-1.5 -1,-1.9s-1.2,-0.6 -2.2,-0.6c-1,0 -1.8,0.2 -2.4,0.6c-0.4,0.3 -0.6,0.6 -0.6,1.1c0,0.4 0.2,0.8 0.5,1c0.4,0.4 1.5,0.8 3.2,1.1s2.9,0.8 3.7,1.2s1.4,1 1.9,1.7s0.7,1.7 0.7,2.7c0,1 -0.3,1.9 -0.8,2.8s-1.3,1.5 -2.3,1.9s-2.2,0.6 -3.7,0.6c-2.2,0 -3.8,-0.5 -5,-1.5s-1.6,-2.3 -1.8,-4.2z" id="svg_22"/>
   <path d="m-645,-1107.47131l0,-17.2l3.5,0l0,7.6l7,-7.6l4.7,0l-6.5,6.7l6.8,10.5l-4.5,0l-4.7,-8.1l-2.8,2.9l0,5.2l-3.5,0z" id="svg_23"/>
  </g>
  <line class="st0" id="svg_10" x1="-614" x2="-614" y1="-1024.471313" y2="-1112.571313"/>
  <g id="svg_42" transform="translate(0 280) scale(0.1 -0.1)">
   <path d="m-6615,14408.71289c-202,-19 -429,-59 -873,-154c-313,-66 -566,-79 -739,-36c-107,27 -218,80 -290,139c-27,21 -52,35 -58,32c-7,-4 -10,-473 -10,-1376l0,-1369l25,0l25,0l0,1035l0,1035l1185,0l1185,0l0,-335l0,-335l25,0l25,0l0,435l0,435l-25,0c-24,0 -25,-2 -25,-75l0,-75l-1185,0l-1185,0l0,271l0,270l27,-21c31,-24 135,-74 209,-100c179,-63 533,-49 889,35c178,42 438,91 635,121c103,16 390,22 515,12c43,-4 43,32 0,44c-35,9 -290,18 -355,12z" id="svg_43"/>
   <path d="m-7570,13639.71289c-419,-71 -752,-406 -820,-827c-19,-117 -19,-199 0,-316c69,-425 394,-752 821,-827c102,-18 170,-19 179,-4c4,6 -45,62 -108,125c-286,283 -417,555 -417,864c0,306 126,571 409,858c61,62 111,116 111,121c0,23 -60,25 -175,6zm-12,-132c-258,-269 -382,-547 -382,-853s124,-584 381,-852c84,-88 90,-96 63,-91c-347,61 -593,238 -735,528c-71,144 -94,247 -94,415s23,272 94,415c109,222 295,390 523,475c45,17 192,54 238,59c3,1 -37,-43 -88,-96z" id="svg_44"/>
   <path d="m-7285,12653.71289l0,-1002l83,7c371,29 699,262 843,599c59,137 78,232 79,392c0,162 -17,252 -72,385c-112,268 -333,474 -610,569c-68,23 -225,51 -285,51l-38,0l0,-1001zm223,773c438,-486 438,-1058 0,-1544c-43,-48 -99,-106 -125,-128l-48,-42l0,942l0,942l48,-42c26,-22 82,-80 125,-128zm17,148c184,-44 387,-174 508,-324c74,-93 152,-247 184,-366c18,-69 22,-112 22,-230c1,-179 -19,-264 -99,-425c-96,-194 -235,-331 -430,-425c-89,-44 -231,-90 -274,-90c-9,0 22,40 72,92c254,268 376,545 376,848s-122,580 -376,848c-49,50 -83,92 -78,92c6,0 48,-9 95,-20z" id="svg_45"/>
  </g>
  <g id="svg_29">
   <path d="m-839.7,-1107.47131l0,-17.2l11.8,0l0,2.9l-8.3,0l0,4.1l7.2,0l0,2.9l-7.2,0l0,7.3l-3.5,0z" id="svg_30"/>
   <path d="m-825.1,-1107.47131l0,-17.2l7.3,0c1.8,0 3.2,0.2 4,0.5s1.5,0.9 2,1.6s0.8,1.7 0.8,2.7c0,1.3 -0.4,2.4 -1.1,3.2s-1.9,1.4 -3.4,1.6c0.8,0.4 1.4,0.9 1.9,1.4s1.1,1.5 2,2.8l2.1,3.4l-4.1,0l-2.5,-3.7c-0.9,-1.3 -1.5,-2.2 -1.8,-2.5s-0.7,-0.6 -1,-0.7s-0.9,-0.2 -1.7,-0.2l-0.7,0l0,7.1l-3.8,0zm3.5,-9.9l2.6,0c1.7,0 2.7,-0.1 3.1,-0.2s0.7,-0.4 1,-0.7s0.4,-0.8 0.4,-1.3c0,-0.6 -0.2,-1 -0.5,-1.4s-0.7,-0.6 -1.3,-0.7c-0.3,0 -1.1,-0.1 -2.5,-0.1l-2.7,0l0,4.4l-0.1,0z" id="svg_31"/>
   <path d="m-807.8,-1107.47131l0,-17.2l12.7,0l0,2.9l-9.3,0l0,3.8l8.6,0l0,2.9l-8.6,0l0,4.7l9.6,0l0,2.9l-13,0z" id="svg_32"/>
   <path d="m-791.8,-1107.47131l0,-17.2l12.7,0l0,2.9l-9.3,0l0,3.8l8.6,0l0,2.9l-8.6,0l0,4.7l9.6,0l0,2.9l-13,0z" id="svg_33"/>
   <path d="m-758.1,-1113.77131l3.4,1.1c-0.5,1.9 -1.4,3.3 -2.6,4.2s-2.7,1.4 -4.6,1.4c-2.3,0 -4.2,-0.8 -5.6,-2.3s-2.2,-3.7 -2.2,-6.4c0,-2.9 0.7,-5.1 2.2,-6.7s3.4,-2.4 5.8,-2.4c2.1,0 3.8,0.6 5.1,1.9c0.8,0.7 1.4,1.8 1.8,3.2l-3.4,0.8c-0.2,-0.9 -0.6,-1.6 -1.3,-2.1s-1.4,-0.8 -2.3,-0.8c-1.3,0 -2.3,0.5 -3.1,1.4s-1.2,2.4 -1.2,4.4c0,2.2 0.4,3.7 1.2,4.6s1.8,1.4 3,1.4c0.9,0 1.7,-0.3 2.4,-0.9s1.1,-1.6 1.4,-2.8z" id="svg_34"/>
   <path d="m-736.3,-1107.47131l-3.8,0l-1.5,-3.9l-6.9,0l-1.4,3.9l-3.6,0l6.7,-17.2l3.7,0l6.8,17.2zm-6.3,-6.8l-2.4,-6.4l-2.3,6.4l4.7,0z" id="svg_35"/>
   <path d="m-735.3,-1113.07131l3.4,-0.3c0.2,1.1 0.6,2 1.2,2.5s1.5,0.8 2.5,0.8c1.1,0 2,-0.2 2.5,-0.7s0.8,-1 0.8,-1.7c0,-0.4 -0.1,-0.8 -0.4,-1s-0.7,-0.5 -1.2,-0.7c-0.4,-0.1 -1.3,-0.4 -2.8,-0.8c-1.9,-0.5 -3.2,-1 -3.9,-1.7c-1.1,-0.9 -1.6,-2.1 -1.6,-3.5c0,-0.9 0.2,-1.7 0.7,-2.5s1.2,-1.3 2.1,-1.7s2.1,-0.6 3.4,-0.6c2.2,0 3.8,0.5 4.9,1.4s1.7,2.2 1.7,3.8l-3.5,0.2c-0.1,-0.9 -0.5,-1.5 -1,-1.9s-1.2,-0.6 -2.2,-0.6c-1,0 -1.8,0.2 -2.4,0.6c-0.4,0.3 -0.6,0.6 -0.6,1.1c0,0.4 0.2,0.8 0.5,1c0.4,0.4 1.5,0.8 3.2,1.1s2.9,0.8 3.7,1.2s1.4,1 1.9,1.7s0.7,1.7 0.7,2.7c0,1 -0.3,1.9 -0.8,2.8s-1.3,1.5 -2.3,1.9s-2.2,0.6 -3.7,0.6c-2.2,0 -3.8,-0.5 -5,-1.5s-1.6,-2.3 -1.8,-4.2z" id="svg_36"/>
   <path d="m-718.4,-1107.47131l0,-17.2l3.5,0l0,6.8l6.8,0l0,-6.8l3.5,0l0,17.2l-3.5,0l0,-7.5l-6.8,0l0,7.5l-3.5,0z" id="svg_37"/>
   <path d="m-694.4,-1124.67131l6.3,0c1.4,0 2.5,0.1 3.3,0.3c1,0.3 1.9,0.8 2.6,1.6s1.3,1.7 1.6,2.8s0.6,2.5 0.6,4.1c0,1.4 -0.2,2.6 -0.5,3.7c-0.4,1.3 -1,2.3 -1.8,3c-0.6,0.6 -1.4,1 -2.4,1.4c-0.8,0.2 -1.8,0.4 -3.1,0.4l-6.5,0l0,-17.3l-0.1,0zm3.5,2.9l0,11.4l2.6,0c1,0 1.7,-0.1 2.1,-0.2c0.6,-0.1 1,-0.4 1.4,-0.7s0.7,-0.9 0.9,-1.7s0.4,-1.8 0.4,-3.1s-0.1,-2.3 -0.4,-3.1s-0.6,-1.3 -1,-1.7s-1,-0.7 -1.6,-0.8c-0.5,-0.1 -1.4,-0.2 -2.8,-0.2l-1.6,0l0,0.1z" id="svg_38"/>
   <path d="m-677.1,-1107.47131l0,-17.2l12.7,0l0,2.9l-9.3,0l0,3.8l8.6,0l0,2.9l-8.6,0l0,4.7l9.6,0l0,2.9l-13,0z" id="svg_39"/>
   <path d="m-661.9,-1113.07131l3.4,-0.3c0.2,1.1 0.6,2 1.2,2.5s1.5,0.8 2.5,0.8c1.1,0 2,-0.2 2.5,-0.7s0.8,-1 0.8,-1.7c0,-0.4 -0.1,-0.8 -0.4,-1s-0.7,-0.5 -1.2,-0.7c-0.4,-0.1 -1.3,-0.4 -2.8,-0.8c-1.9,-0.5 -3.2,-1 -3.9,-1.7c-1.1,-0.9 -1.6,-2.1 -1.6,-3.5c0,-0.9 0.2,-1.7 0.7,-2.5s1.2,-1.3 2.1,-1.7s2.1,-0.6 3.4,-0.6c2.2,0 3.8,0.5 4.9,1.4s1.7,2.2 1.7,3.8l-3.5,0.2c-0.1,-0.9 -0.5,-1.5 -1,-1.9s-1.2,-0.6 -2.2,-0.6c-1,0 -1.8,0.2 -2.4,0.6c-0.4,0.3 -0.6,0.6 -0.6,1.1c0,0.4 0.2,0.8 0.5,1c0.4,0.4 1.5,0.8 3.2,1.1s2.9,0.8 3.7,1.2s1.4,1 1.9,1.7s0.7,1.7 0.7,2.7c0,1 -0.3,1.9 -0.8,2.8s-1.3,1.5 -2.3,1.9s-2.2,0.6 -3.7,0.6c-2.2,0 -3.8,-0.5 -5,-1.5s-1.6,-2.3 -1.8,-4.2z" id="svg_40"/>
   <path d="m-645,-1107.47131l0,-17.2l3.5,0l0,7.6l7,-7.6l4.7,0l-6.5,6.7l6.8,10.5l-4.5,0l-4.7,-8.1l-2.8,2.9l0,5.2l-3.5,0z" id="svg_41"/>
  </g>
  <line class="st0" id="svg_28" x1="-614" x2="-614" y1="-1024.471313" y2="-1112.571313"/>
  <g id="svg_60" transform="translate(0 280) scale(0.1 -0.1)">
   <path d="m-7525,17278.71289c-202,-19 -429,-59 -873,-154c-313,-66 -566,-79 -739,-36c-107,27 -218,80 -290,139c-27,21 -52,35 -58,32c-7,-4 -10,-473 -10,-1376l0,-1369l25,0l25,0l0,1035l0,1035l1185,0l1185,0l0,-335l0,-335l25,0l25,0l0,435l0,435l-25,0c-24,0 -25,-2 -25,-75l0,-75l-1185,0l-1185,0l0,271l0,270l27,-21c31,-24 135,-74 209,-100c179,-63 533,-49 889,35c178,42 438,91 635,121c103,16 390,22 515,12c43,-4 43,32 0,44c-35,9 -290,18 -355,12z" id="svg_61"/>
   <path d="m-8480,16509.71289c-419,-71 -752,-406 -820,-827c-19,-117 -19,-199 0,-316c69,-425 394,-752 821,-827c102,-18 170,-19 179,-4c4,6 -45,62 -108,125c-286,283 -417,555 -417,864c0,306 126,571 409,858c61,62 111,116 111,121c0,23 -60,25 -175,6zm-12,-132c-258,-269 -382,-547 -382,-853s124,-584 381,-852c84,-88 90,-96 63,-91c-347,61 -593,238 -735,528c-71,144 -94,247 -94,415s23,272 94,415c109,222 295,390 523,475c45,17 192,54 238,59c3,1 -37,-43 -88,-96z" id="svg_62"/>
   <path d="m-8195,15523.71289l0,-1002l83,7c371,29 699,262 843,599c59,137 78,232 79,392c0,162 -17,252 -72,385c-112,268 -333,474 -610,569c-68,23 -225,51 -285,51l-38,0l0,-1001zm223,773c438,-486 438,-1058 0,-1544c-43,-48 -99,-106 -125,-128l-48,-42l0,942l0,942l48,-42c26,-22 82,-80 125,-128zm17,148c184,-44 387,-174 508,-324c74,-93 152,-247 184,-366c18,-69 22,-112 22,-230c1,-179 -19,-264 -99,-425c-96,-194 -235,-331 -430,-425c-89,-44 -231,-90 -274,-90c-9,0 22,40 72,92c254,268 376,545 376,848s-122,580 -376,848c-49,50 -83,92 -78,92c6,0 48,-9 95,-20z" id="svg_63"/>
  </g>
  <g id="svg_47">
   <path d="m-930.7,-1394.47131l0,-17.2l11.8,0l0,2.9l-8.3,0l0,4.1l7.2,0l0,2.9l-7.2,0l0,7.3l-3.5,0z" id="svg_48"/>
   <path d="m-916.1,-1394.47131l0,-17.2l7.3,0c1.8,0 3.2,0.2 4,0.5s1.5,0.9 2,1.6s0.8,1.7 0.8,2.7c0,1.3 -0.4,2.4 -1.1,3.2s-1.9,1.4 -3.4,1.6c0.8,0.4 1.4,0.9 1.9,1.4s1.1,1.5 2,2.8l2.1,3.4l-4.1,0l-2.5,-3.7c-0.9,-1.3 -1.5,-2.2 -1.8,-2.5s-0.7,-0.6 -1,-0.7s-0.9,-0.2 -1.7,-0.2l-0.7,0l0,7.1l-3.8,0zm3.5,-9.9l2.6,0c1.7,0 2.7,-0.1 3.1,-0.2s0.7,-0.4 1,-0.7s0.4,-0.8 0.4,-1.3c0,-0.6 -0.2,-1 -0.5,-1.4s-0.7,-0.6 -1.3,-0.7c-0.3,0 -1.1,-0.1 -2.5,-0.1l-2.7,0l0,4.4l-0.1,0z" id="svg_49"/>
   <path d="m-898.8,-1394.47131l0,-17.2l12.7,0l0,2.9l-9.3,0l0,3.8l8.6,0l0,2.9l-8.6,0l0,4.7l9.6,0l0,2.9l-13,0z" id="svg_50"/>
   <path d="m-882.8,-1394.47131l0,-17.2l12.7,0l0,2.9l-9.3,0l0,3.8l8.6,0l0,2.9l-8.6,0l0,4.7l9.6,0l0,2.9l-13,0z" id="svg_51"/>
   <path d="m-849.1,-1400.77131l3.4,1.1c-0.5,1.9 -1.4,3.3 -2.6,4.2s-2.7,1.4 -4.6,1.4c-2.3,0 -4.2,-0.8 -5.6,-2.3s-2.2,-3.7 -2.2,-6.4c0,-2.9 0.7,-5.1 2.2,-6.7s3.4,-2.4 5.8,-2.4c2.1,0 3.8,0.6 5.1,1.9c0.8,0.7 1.4,1.8 1.8,3.2l-3.4,0.8c-0.2,-0.9 -0.6,-1.6 -1.3,-2.1s-1.4,-0.8 -2.3,-0.8c-1.3,0 -2.3,0.5 -3.1,1.4s-1.2,2.4 -1.2,4.4c0,2.2 0.4,3.7 1.2,4.6s1.8,1.4 3,1.4c0.9,0 1.7,-0.3 2.4,-0.9s1.1,-1.6 1.4,-2.8z" id="svg_52"/>
   <path d="m-827.3,-1394.47131l-3.8,0l-1.5,-3.9l-6.9,0l-1.4,3.9l-3.6,0l6.7,-17.2l3.7,0l6.8,17.2zm-6.3,-6.8l-2.4,-6.4l-2.3,6.4l4.7,0z" id="svg_53"/>
   <path d="m-826.3,-1400.07131l3.4,-0.3c0.2,1.1 0.6,2 1.2,2.5s1.5,0.8 2.5,0.8c1.1,0 2,-0.2 2.5,-0.7s0.8,-1 0.8,-1.7c0,-0.4 -0.1,-0.8 -0.4,-1s-0.7,-0.5 -1.2,-0.7c-0.4,-0.1 -1.3,-0.4 -2.8,-0.8c-1.9,-0.5 -3.2,-1 -3.9,-1.7c-1.1,-0.9 -1.6,-2.1 -1.6,-3.5c0,-0.9 0.2,-1.7 0.7,-2.5s1.2,-1.3 2.1,-1.7s2.1,-0.6 3.4,-0.6c2.2,0 3.8,0.5 4.9,1.4s1.7,2.2 1.7,3.8l-3.5,0.2c-0.1,-0.9 -0.5,-1.5 -1,-1.9s-1.2,-0.6 -2.2,-0.6c-1,0 -1.8,0.2 -2.4,0.6c-0.4,0.3 -0.6,0.6 -0.6,1.1c0,0.4 0.2,0.8 0.5,1c0.4,0.4 1.5,0.8 3.2,1.1s2.9,0.8 3.7,1.2s1.4,1 1.9,1.7s0.7,1.7 0.7,2.7c0,1 -0.3,1.9 -0.8,2.8s-1.3,1.5 -2.3,1.9s-2.2,0.6 -3.7,0.6c-2.2,0 -3.8,-0.5 -5,-1.5s-1.6,-2.3 -1.8,-4.2z" id="svg_54"/>
   <path d="m-809.4,-1394.47131l0,-17.2l3.5,0l0,6.8l6.8,0l0,-6.8l3.5,0l0,17.2l-3.5,0l0,-7.5l-6.8,0l0,7.5l-3.5,0z" id="svg_55"/>
   <path d="m-785.4,-1411.67131l6.3,0c1.4,0 2.5,0.1 3.3,0.3c1,0.3 1.9,0.8 2.6,1.6s1.3,1.7 1.6,2.8s0.6,2.5 0.6,4.1c0,1.4 -0.2,2.6 -0.5,3.7c-0.4,1.3 -1,2.3 -1.8,3c-0.6,0.6 -1.4,1 -2.4,1.4c-0.8,0.2 -1.8,0.4 -3.1,0.4l-6.5,0l0,-17.3l-0.1,0zm3.5,2.9l0,11.4l2.6,0c1,0 1.7,-0.1 2.1,-0.2c0.6,-0.1 1,-0.4 1.4,-0.7s0.7,-0.9 0.9,-1.7s0.4,-1.8 0.4,-3.1s-0.1,-2.3 -0.4,-3.1s-0.6,-1.3 -1,-1.7s-1,-0.7 -1.6,-0.8c-0.5,-0.1 -1.4,-0.2 -2.8,-0.2l-1.6,0l0,0.1z" id="svg_56"/>
   <path d="m-768.1,-1394.47131l0,-17.2l12.7,0l0,2.9l-9.3,0l0,3.8l8.6,0l0,2.9l-8.6,0l0,4.7l9.6,0l0,2.9l-13,0z" id="svg_57"/>
   <path d="m-752.9,-1400.07131l3.4,-0.3c0.2,1.1 0.6,2 1.2,2.5s1.5,0.8 2.5,0.8c1.1,0 2,-0.2 2.5,-0.7s0.8,-1 0.8,-1.7c0,-0.4 -0.1,-0.8 -0.4,-1s-0.7,-0.5 -1.2,-0.7c-0.4,-0.1 -1.3,-0.4 -2.8,-0.8c-1.9,-0.5 -3.2,-1 -3.9,-1.7c-1.1,-0.9 -1.6,-2.1 -1.6,-3.5c0,-0.9 0.2,-1.7 0.7,-2.5s1.2,-1.3 2.1,-1.7s2.1,-0.6 3.4,-0.6c2.2,0 3.8,0.5 4.9,1.4s1.7,2.2 1.7,3.8l-3.5,0.2c-0.1,-0.9 -0.5,-1.5 -1,-1.9s-1.2,-0.6 -2.2,-0.6c-1,0 -1.8,0.2 -2.4,0.6c-0.4,0.3 -0.6,0.6 -0.6,1.1c0,0.4 0.2,0.8 0.5,1c0.4,0.4 1.5,0.8 3.2,1.1s2.9,0.8 3.7,1.2s1.4,1 1.9,1.7s0.7,1.7 0.7,2.7c0,1 -0.3,1.9 -0.8,2.8s-1.3,1.5 -2.3,1.9s-2.2,0.6 -3.7,0.6c-2.2,0 -3.8,-0.5 -5,-1.5s-1.6,-2.3 -1.8,-4.2z" id="svg_58"/>
   <path d="m-736,-1394.47131l0,-17.2l3.5,0l0,7.6l7,-7.6l4.7,0l-6.5,6.7l6.8,10.5l-4.5,0l-4.7,-8.1l-2.8,2.9l0,5.2l-3.5,0z" id="svg_59"/>
  </g>
  <line class="st0" id="svg_46" x1="-705" x2="-705" y1="-1311.471313" y2="-1399.571313"/>
  <line fill="none" id="svg_5" stroke="#2d8cf0" stroke-dasharray="null" stroke-linecap="null" stroke-linejoin="null" stroke-width="9" x1="218.663019" x2="218.663019" y1="125.04218" y2="448.707257"/>
  <path d="m321.79716,2.24017c-32.74274,3.07977 -69.5378,9.56348 -141.50698,24.96229c-50.73504,10.69812 -91.74451,12.80533 -119.78655,5.83534c-17.34393,-4.37651 -35.33623,-12.96742 -47.00691,-22.53089c-4.3765,-3.40395 -8.42882,-5.67325 -9.40138,-5.18697c-1.13464,0.64837 -1.62092,76.66987 -1.62092,223.03964l0,221.90499l4.05232,0l4.05231,0l0,-167.76601l0,-167.76601l192.07993,0l192.07992,0l0,54.30108l0,54.30107l4.05232,0l4.05232,0l0,-70.51035l0,-70.51035l-4.05232,0c-3.89022,0 -4.05232,0.32419 -4.05232,12.15696l0,12.15695l-192.07992,0l-192.07993,0l0,-43.92713l0,-43.76505l4.37651,3.40395c5.02488,3.89022 21.88252,11.99486 33.87739,16.20927c29.0146,10.21185 86.39544,7.94255 144.10046,-5.67324c28.85251,-6.8079 70.99663,-14.75044 102.92891,-19.61323c16.69555,-2.59348 63.21618,-3.56604 83.47777,-1.94511c6.96999,0.64837 6.96999,-5.18697 0,-7.13208c-5.67325,-1.45884 -47.0069,-2.91767 -57.54293,-1.94512z" fill="#2d8cf0" id="svg_124"/>
  <path d="m184.22092,129.85234l-20.46421,1.01308l-37.28133,12.56219l-32.82379,20.66683l-21.07206,23.09821l-15.39881,20.66683l-14.99358,31.20286l-7.29417,32.01332l0.81046,27.55577l4.86278,23.90868l5.26802,18.23543l6.07848,13.77789l17.42497,30.39239l20.2616,18.64067l36.06564,25.93484l14.58834,4.45755l26.74531,8.9151l15.80404,-0.40523l-7.6994,-16.20927l-23.50345,-25.12438l-20.2616,-29.58193l-15.80404,-34.03948l-8.50987,-44.57551l0.81046,-30.39239l9.72557,-34.84995l15.80404,-34.84994l22.69299,-29.1767l28.16361,-33.83686z" fill="url(#svg_2)" fill-opacity="0.5" id="svg_132" stroke-dasharray="null" stroke-linecap="null" stroke-linejoin="null" stroke-width="null"/>
  <path d="m167.4038,126.48428c-67.91687,11.50858 -121.89376,65.80966 -132.91606,134.05071c-3.07977,18.96486 -3.07977,32.25646 0,51.22132c11.1844,68.88942 63.86455,121.89375 133.07815,134.05071c16.53347,2.91767 27.55577,3.07976 29.01461,0.64837c0.64837,-0.97256 -7.29417,-10.04975 -17.50602,-20.26159c-46.35853,-45.87226 -67.59268,-89.96149 -67.59268,-140.04815c0,-49.60039 20.42369,-92.55497 66.29594,-139.07559c9.88766,-10.04975 17.9923,-18.80276 17.9923,-19.61323c0,-3.72813 -9.72557,-4.05231 -28.36624,-0.97255zm-1.94511,21.39624c-41.81993,43.60296 -61.91944,88.66474 -61.91944,138.26513s20.09951,94.66217 61.75735,138.10303c13.61579,14.26417 14.58835,15.56091 10.21184,14.75045c-56.24619,-9.88766 -96.12101,-38.57808 -119.13818,-85.58498c-11.50859,-23.34136 -15.23672,-40.03692 -15.23672,-67.2685s3.72813,-44.08923 15.23672,-67.2685c17.66811,-35.98459 47.81736,-63.21618 84.77451,-76.99406c7.29418,-2.75558 31.12182,-8.75301 38.57808,-9.56347c0.48628,-0.1621 -5.99743,6.96999 -14.26416,15.5609z" fill="#2d8cf0" id="svg_123"/>
  <g id="svg_109">
   <path d="m33.35309,88.39248l0,-27.87995l19.12694,0l0,4.70069l-13.4537,0l0,6.6458l11.67068,0l0,4.70069l-11.67068,0l0,11.83277l-5.67324,0z" fill="#2d8cf0" id="svg_110"/>
   <path d="m57.01863,88.39248l0,-27.87995l11.83277,0c2.91767,0 5.18697,0.32418 6.48371,0.81046s2.43139,1.45884 3.24186,2.59349s1.29674,2.75557 1.29674,4.3765c0,2.10721 -0.64837,3.89023 -1.78302,5.18697s-3.07976,2.2693 -5.51115,2.59348c1.29674,0.64838 2.26929,1.45884 3.07976,2.2693s1.78302,2.43139 3.24185,4.5386l3.40395,5.51115l-6.6458,0l-4.05232,-5.99743c-1.45884,-2.1072 -2.43139,-3.56604 -2.91767,-4.05232s-1.13465,-0.97255 -1.62093,-1.13465s-1.45883,-0.32418 -2.75558,-0.32418l-1.13465,0l0,11.50858l-6.15952,0zm5.67325,-16.04718l4.21441,0c2.75558,0 4.3765,-0.16209 5.02488,-0.32419s1.13464,-0.64837 1.62092,-1.13464s0.64837,-1.29675 0.64837,-2.10721c0,-0.97256 -0.32418,-1.62093 -0.81046,-2.2693s-1.13465,-0.97256 -2.10721,-1.13465c-0.48627,0 -1.78302,-0.16209 -4.05231,-0.16209l-4.37651,0l0,7.13208l-0.16209,0z" fill="#2d8cf0" id="svg_111"/>
   <path d="m85.06068,88.39248l0,-27.87995l20.58578,0l0,4.70069l-15.07463,0l0,6.15952l13.93998,0l0,4.70069l-13.93998,0l0,7.61836l15.56091,0l0,4.70069l-21.07206,0z" fill="#2d8cf0" id="svg_112"/>
   <path d="m110.99552,88.39248l0,-27.87995l20.58578,0l0,4.70069l-15.07463,0l0,6.15952l13.93998,0l0,4.70069l-13.93998,0l0,7.61836l15.56091,0l0,4.70069l-21.07206,0z" fill="#2d8cf0" id="svg_113"/>
   <path d="m165.62078,78.18064l5.51115,1.78302c-0.81046,3.07976 -2.2693,5.34906 -4.21441,6.8079s-4.3765,2.26929 -7.45627,2.26929c-3.72813,0 -6.80789,-1.29674 -9.07719,-3.72813s-3.56604,-5.99743 -3.56604,-10.37394c0,-4.70068 1.13465,-8.26673 3.56604,-10.86021s5.51115,-3.89023 9.40138,-3.89023c3.40395,0 6.15952,0.97256 8.26673,3.07977c1.29674,1.13464 2.2693,2.91767 2.91767,5.18696l-5.51115,1.29675c-0.32419,-1.45884 -0.97256,-2.59349 -2.10721,-3.40395s-2.2693,-1.29674 -3.72813,-1.29674c-2.10721,0 -3.72814,0.81046 -5.02488,2.2693s-1.94511,3.89022 -1.94511,7.13208c0,3.56604 0.64837,5.99743 1.94511,7.45626s2.91767,2.2693 4.86278,2.2693c1.45884,0 2.75558,-0.48628 3.89023,-1.45883s1.78302,-2.59349 2.2693,-4.5386z" fill="#2d8cf0" id="svg_114"/>
   <path d="m200.957,88.39248l-6.15952,0l-2.4314,-6.32161l-11.1844,0l-2.26929,6.32161l-5.83534,0l10.86021,-27.87995l5.99743,0l11.02231,27.87995zm-10.21184,-11.0223l-3.89023,-10.37394l-3.72813,10.37394l7.61836,0z" fill="#2d8cf0" id="svg_115"/>
   <path d="m202.57793,79.31529l5.51115,-0.48628c0.32419,1.78302 0.97256,3.24186 1.94512,4.05232s2.43139,1.29674 4.05232,1.29674c1.78302,0 3.24185,-0.32418 4.05231,-1.13465s1.29675,-1.62093 1.29675,-2.75557c0,-0.64837 -0.1621,-1.29675 -0.64837,-1.62093s-1.13465,-0.81047 -1.94512,-1.13465c-0.64837,-0.16209 -2.1072,-0.64837 -4.53859,-1.29674c-3.07977,-0.81047 -5.18697,-1.62093 -6.32162,-2.75558c-1.78302,-1.45883 -2.59349,-3.40395 -2.59349,-5.67325c0,-1.45883 0.32419,-2.75557 1.13465,-4.05232s1.94512,-2.1072 3.40395,-2.75557s3.40395,-0.97256 5.51115,-0.97256c3.56605,0 6.15953,0.81046 7.94255,2.2693s2.75558,3.56604 2.75558,6.15952l-5.67325,0.32419c-0.16209,-1.45883 -0.81046,-2.43139 -1.62093,-3.07976s-1.94511,-0.97256 -3.56604,-0.97256c-1.62093,0 -2.91767,0.32419 -3.89023,0.97256c-0.64837,0.48628 -0.97255,0.97255 -0.97255,1.78302c0,0.64837 0.32418,1.29674 0.81046,1.62093c0.64837,0.64837 2.43139,1.29674 5.18697,1.78302s4.70069,1.29674 5.99743,1.94511s2.2693,1.62093 3.07976,2.75558s1.13465,2.75557 1.13465,4.3765c0,1.62093 -0.48628,3.07976 -1.29674,4.5386s-2.10721,2.43139 -3.72813,3.07976s-3.56604,0.97256 -5.99744,0.97256c-3.56604,0 -6.15952,-0.81047 -8.10463,-2.43139s-2.59349,-3.72814 -2.91767,-6.8079z" fill="#2d8cf0" id="svg_116"/>
   <path d="m229.97161,88.39248l0,-27.87995l5.67324,0l0,11.02231l11.02231,0l0,-11.02231l5.67325,0l0,27.87995l-5.67325,0l0,-12.15695l-11.02231,0l0,12.15695l-5.67324,0z" fill="#2d8cf0" id="svg_117"/>
   <path d="m268.87387,60.51253l10.21184,0c2.2693,0 4.05232,0.16209 5.34906,0.48628c1.62093,0.48627 3.07977,1.29674 4.21441,2.59348s2.10721,2.75558 2.59349,4.5386s0.97256,4.05232 0.97256,6.6458c0,2.2693 -0.32419,4.21441 -0.81047,5.99743c-0.64837,2.10721 -1.62093,3.72814 -2.91767,4.86279c-0.97256,0.97255 -2.2693,1.62092 -3.89022,2.2693c-1.29675,0.32418 -2.91767,0.64837 -5.02488,0.64837l-10.53603,0l0,-28.04205l-0.16209,0zm5.67325,4.70069l0,18.47857l4.21441,0c1.62092,0 2.75557,-0.16209 3.40395,-0.32418c0.97255,-0.1621 1.62092,-0.64837 2.26929,-1.13465s1.13465,-1.45884 1.45884,-2.75558s0.64837,-2.91767 0.64837,-5.02487s-0.16209,-3.72814 -0.64837,-5.02488s-0.97256,-2.10721 -1.62093,-2.75558s-1.62093,-1.13465 -2.59348,-1.29674c-0.81047,-0.16209 -2.2693,-0.32419 -4.5386,-0.32419l-2.59348,0l0,0.1621z" fill="#2d8cf0" id="svg_118"/>
   <path d="m296.91591,88.39248l0,-27.87995l20.58579,0l0,4.70069l-15.07463,0l0,6.15952l13.93998,0l0,4.70069l-13.93998,0l0,7.61836l15.5609,0l0,4.70069l-21.07206,0z" fill="#2d8cf0" id="svg_119"/>
   <path d="m321.55401,79.31529l5.51116,-0.48628c0.32418,1.78302 0.97256,3.24186 1.94511,4.05232s2.43139,1.29674 4.05232,1.29674c1.78302,0 3.24186,-0.32418 4.05232,-1.13465s1.29674,-1.62093 1.29674,-2.75557c0,-0.64837 -0.16209,-1.29675 -0.64837,-1.62093s-1.13465,-0.81047 -1.94511,-1.13465c-0.64837,-0.16209 -2.10721,-0.64837 -4.5386,-1.29674c-3.07976,-0.81047 -5.18697,-1.62093 -6.32162,-2.75558c-1.78302,-1.45883 -2.59348,-3.40395 -2.59348,-5.67325c0,-1.45883 0.32419,-2.75557 1.13465,-4.05232s1.94511,-2.1072 3.40395,-2.75557s3.40394,-0.97256 5.51115,-0.97256c3.56604,0 6.15953,0.81046 7.94255,2.2693s2.75557,3.56604 2.75557,6.15952l-5.67324,0.32419c-0.1621,-1.45883 -0.81047,-2.43139 -1.62093,-3.07976s-1.94512,-0.97256 -3.56604,-0.97256c-1.62093,0 -2.91767,0.32419 -3.89023,0.97256c-0.64837,0.48628 -0.97256,0.97255 -0.97256,1.78302c0,0.64837 0.32419,1.29674 0.81047,1.62093c0.64837,0.64837 2.43139,1.29674 5.18697,1.78302s4.70069,1.29674 5.99743,1.94511s2.2693,1.62093 3.07976,2.75558s1.13465,2.75557 1.13465,4.3765c0,1.62093 -0.48628,3.07976 -1.29674,4.5386s-2.10721,2.43139 -3.72814,3.07976s-3.56604,0.97256 -5.99743,0.97256c-3.56604,0 -6.15952,-0.81047 -8.10464,-2.43139s-2.59348,-3.72814 -2.91767,-6.8079z" fill="#2d8cf0" id="svg_120"/>
   <path d="m348.94769,88.39248l0,-27.87995l5.67325,0l0,12.31905l11.34649,-12.31905l7.61836,0l-10.53603,10.86021l11.02231,17.01974l-7.29417,0l-7.61836,-13.12951l-4.5386,4.70069l0,8.42882l-5.67325,0z" fill="#2d8cf0" id="svg_121"/>
  </g>
  <path d="m225.8585,443.19791l20.46421,-1.01308l37.28134,-12.56219l32.82378,-20.66683l21.07206,-23.09822l15.39881,-20.66682l14.99358,-31.20286l7.29418,-32.01332l-0.81047,-27.55577l-4.86278,-23.90868l-5.26802,-18.23544l-6.07847,-13.77788l-17.42498,-30.39239l-20.26159,-18.64067l-36.06564,-25.93484l-14.58835,-4.45755l-26.7453,-8.91511l-15.80405,0.40524l7.69941,16.20927l23.50345,25.12438l20.26159,29.58193l15.80405,34.03948l8.50987,44.57551l-0.81047,30.39239l-9.72556,34.84995l-15.80405,34.84994l-22.69298,29.1767l-28.16362,33.83686z" fill="url(#svg_2)" fill-opacity="0.5" id="svg_133" stroke-dasharray="null" stroke-linecap="null" stroke-linejoin="null" stroke-width="null"/>
  <path d="m243.66669,446.66697c67.91687,-11.50859 121.89376,-65.80966 132.91607,-134.05072c3.07976,-18.96485 3.07976,-32.25646 0,-51.22131c-11.1844,-68.88942 -63.86455,-121.89376 -133.07816,-134.05071c-16.53346,-2.91767 -27.55577,-3.07977 -29.01461,-0.64837c-0.64837,0.97255 7.29418,10.04975 17.50602,20.26159c46.35853,45.87225 67.59268,89.96148 67.59268,140.04815c0,49.60038 -20.42368,92.55496 -66.29594,139.07559c-9.88766,10.04975 -17.99229,18.80276 -17.99229,19.61322c0,3.72814 9.72556,4.05232 28.36623,0.97256zm1.94511,-21.39625c41.81994,-43.60295 61.91944,-88.66474 61.91944,-138.26512s-20.0995,-94.66218 -61.75735,-138.10304c-13.61579,-14.26416 -14.58834,-15.5609 -10.21184,-14.75044c56.24619,9.88766 96.12101,38.57808 119.13818,85.58498c11.50859,23.34136 15.23672,40.03691 15.23672,67.2685s-3.72813,44.08923 -15.23672,67.26849c-17.66811,35.9846 -47.81736,63.21618 -84.77451,76.99407c-7.29418,2.75557 -31.12181,8.75301 -38.57808,9.56347c-0.48628,0.16209 5.99743,-6.96999 14.26416,-15.56091z" fill="#2d8cf0" id="svg_125"/>
  <line fill="none" id="svg_127" stroke="#2d8cf0" stroke-dasharray="null" stroke-linecap="null" stroke-linejoin="null" stroke-width="8" x1="398.493831" x2="398.493831" y1="82.31928" y2="223.176615"/>
 </g>
</svg>